<mxfile host="app.diagrams.net" modified="2024-01-10T06:16:37.007Z" agent="Mozilla/5.0 (Macintosh; Intel Mac OS X 10_15_7) AppleWebKit/537.36 (KHTML, like Gecko) Chrome/120.0.0.0 Safari/537.36" version="22.1.17" etag="SxSdvaBzaul6YI3zOaiT" type="github">
  <diagram name="第 1 页" id="hPAh8nc3BGrFh4JK-2eV">
    <mxGraphModel>
      <root>
        <mxCell id="0" />
        <mxCell id="1" parent="0" />
      </root>
    </mxGraphModel>
  </diagram>
</mxfile>
